<svg width="38" height="40" viewBox="0 0 38 40" fill="none" xmlns="http://www.w3.org/2000/svg">
<rect width="38" height="40" rx="8" fill="#B0F0D6"/>
<path d="M10 25C9.45 25 8.97917 24.8042 8.5875 24.4125C8.19583 24.0208 8 23.55 8 23C8 22.45 8.19583 21.9792 8.5875 21.5875C8.97917 21.1958 9.45 21 10 21C10.1 21 10.1875 21 10.2625 21C10.3375 21 10.4167 21.0167 10.5 21.05L15.05 16.5C15.0167 16.4167 15 16.3375 15 16.2625C15 16.1875 15 16.1 15 16C15 15.45 15.1958 14.9792 15.5875 14.5875C15.9792 14.1958 16.45 14 17 14C17.55 14 18.0208 14.1958 18.4125 14.5875C18.8042 14.9792 19 15.45 19 16C19 16.0333 18.9833 16.2 18.95 16.5L21.5 19.05C21.5833 19.0167 21.6625 19 21.7375 19C21.8125 19 21.9 19 22 19C22.1 19 22.1875 19 22.2625 19C22.3375 19 22.4167 19.0167 22.5 19.05L26.05 15.5C26.0167 15.4167 26 15.3375 26 15.2625C26 15.1875 26 15.1 26 15C26 14.45 26.1958 13.9792 26.5875 13.5875C26.9792 13.1958 27.45 13 28 13C28.55 13 29.0208 13.1958 29.4125 13.5875C29.8042 13.9792 30 14.45 30 15C30 15.55 29.8042 16.0208 29.4125 16.4125C29.0208 16.8042 28.55 17 28 17C27.9 17 27.8125 17 27.7375 17C27.6625 17 27.5833 16.9833 27.5 16.95L23.95 20.5C23.9833 20.5833 24 20.6625 24 20.7375C24 20.8125 24 20.9 24 21C24 21.55 23.8042 22.0208 23.4125 22.4125C23.0208 22.8042 22.55 23 22 23C21.45 23 20.9792 22.8042 20.5875 22.4125C20.1958 22.0208 20 21.55 20 21C20 20.9 20 20.8125 20 20.7375C20 20.6625 20.0167 20.5833 20.05 20.5L17.5 17.95C17.4167 17.9833 17.3375 18 17.2625 18C17.1875 18 17.1 18 17 18C16.9667 18 16.8 17.9833 16.5 17.95L11.95 22.5C11.9833 22.5833 12 22.6625 12 22.7375C12 22.8125 12 22.9 12 23C12 23.55 11.8042 24.0208 11.4125 24.4125C11.0208 24.8042 10.55 25 10 25ZM11 14.975L10.375 13.625L9.025 13L10.375 12.375L11 11.025L11.625 12.375L12.975 13L11.625 13.625L11 14.975ZM22 14L21.05 11.95L19 11L21.05 10.05L22 8L22.95 10.05L25 11L22.95 11.95L22 14Z" fill="#002117"/>
</svg>
