<svg width="22" height="19" viewBox="0 0 22 19" fill="none" xmlns="http://www.w3.org/2000/svg">
<path d="M18.95 13.9L17.4 12.35C18.1333 11.6667 18.7083 10.8583 19.125 9.925C19.5417 8.99167 19.75 8 19.75 6.95C19.75 5.9 19.5417 4.91667 19.125 4C18.7083 3.08333 18.1333 2.28333 17.4 1.6L18.95 0C19.8833 0.883333 20.625 1.925 21.175 3.125C21.725 4.325 22 5.6 22 6.95C22 8.3 21.725 9.575 21.175 10.775C20.625 11.975 19.8833 13.0167 18.95 13.9ZM15.75 10.7L14.15 9.1C14.45 8.81667 14.6917 8.49583 14.875 8.1375C15.0583 7.77917 15.15 7.38333 15.15 6.95C15.15 6.51667 15.0583 6.12083 14.875 5.7625C14.6917 5.40417 14.45 5.08333 14.15 4.8L15.75 3.2C16.2833 3.68333 16.7 4.24583 17 4.8875C17.3 5.52917 17.45 6.21667 17.45 6.95C17.45 7.68333 17.3 8.37083 17 9.0125C16.7 9.65417 16.2833 10.2167 15.75 10.7ZM8 10.95C6.9 10.95 5.95833 10.5583 5.175 9.775C4.39167 8.99167 4 8.05 4 6.95C4 5.85 4.39167 4.90833 5.175 4.125C5.95833 3.34167 6.9 2.95 8 2.95C9.1 2.95 10.0417 3.34167 10.825 4.125C11.6083 4.90833 12 5.85 12 6.95C12 8.05 11.6083 8.99167 10.825 9.775C10.0417 10.5583 9.1 10.95 8 10.95ZM0 18.95V16.15C0 15.6 0.141667 15.0833 0.425 14.6C0.708333 14.1167 1.1 13.75 1.6 13.5C2.45 13.0667 3.40833 12.7 4.475 12.4C5.54167 12.1 6.71667 11.95 8 11.95C9.28333 11.95 10.4583 12.1 11.525 12.4C12.5917 12.7 13.55 13.0667 14.4 13.5C14.9 13.75 15.2917 14.1167 15.575 14.6C15.8583 15.0833 16 15.6 16 16.15V18.95H0Z" fill="#006E2F"/>
</svg>
